<?xml version="1.0" encoding="UTF-8" standalone="no"?>
<svg
   xmlns:dc="http://purl.org/dc/elements/1.1/"
   xmlns:cc="http://creativecommons.org/ns#"
   xmlns:rdf="http://www.w3.org/1999/02/22-rdf-syntax-ns#"
   xmlns:svg="http://www.w3.org/2000/svg"
   xmlns="http://www.w3.org/2000/svg"
   xmlns:sodipodi="http://sodipodi.sourceforge.net/DTD/sodipodi-0.dtd"
   xmlns:inkscape="http://www.inkscape.org/namespaces/inkscape"
   viewBox="0 0 160 120.00001"
   height="120"
   width="160"
   xml:space="preserve"
   id="svg2"
   version="1.1"
   sodipodi:docname="logo-black.svg"
   inkscape:version="0.92.2 (5c3e80d, 2017-08-06)"><sodipodi:namedview
     pagecolor="#ffffff"
     bordercolor="#666666"
     borderopacity="1"
     objecttolerance="10"
     gridtolerance="10"
     guidetolerance="10"
     inkscape:pageopacity="0"
     inkscape:pageshadow="2"
     inkscape:window-width="2560"
     inkscape:window-height="1341"
     id="namedview4634"
     showgrid="false"
     inkscape:zoom="5.7852606"
     inkscape:cx="44.026689"
     inkscape:cy="64.738208"
     inkscape:window-x="0"
     inkscape:window-y="28"
     inkscape:window-maximized="1"
     inkscape:current-layer="svg2" /><metadata
     id="metadata8"><rdf:RDF><cc:Work
         rdf:about=""><dc:format>image/svg+xml</dc:format><dc:type
           rdf:resource="http://purl.org/dc/dcmitype/StillImage" /><dc:title></dc:title></cc:Work></rdf:RDF></metadata><defs
     id="defs6" /><g
     id="g4754"
     transform="translate(-14.632805,2.2438542)"><path
       inkscape:connector-curvature="0"
       id="path14"
       d="m 39.945312,11.528977 6.447266,10.986328 c -1.338824,0.219982 -2.730341,0.550579 -4.177734,1.001953 -2.834666,0.885867 -5.213213,1.991639 -7.132813,3.326172 0.9612,0 1.816541,0.379566 2.566407,1.134766 0.177075,1.876872 0.353943,3.48249 0.53125,4.960937 0.01596,-0.0019 0.02816,-0.01172 0.04492,-0.01172 h 2.50586 2.503906 l -0.06445,0.261719 c -1.121334,0.08587 -1.693644,1.395208 -1.714844,3.921875 l -0.109375,8.236328 c 0.67969,1.457643 1.465498,2.895316 2.371094,4.308594 0.4188,0.613333 1.416886,1.783006 3.001953,3.513672 1.751467,1.873867 2.812253,2.810547 3.189453,2.810547 0.291333,0 1.2084,-0.648246 2.75,-1.945313 1.375733,-1.1532 2.24984,-1.945353 2.628906,-2.376953 0.545519,-0.657307 1.063317,-1.317314 1.554688,-1.980469 v -1.654296 l 0.07031,-6.263672 c -0.647663,3.9014 -1.855057,7.061741 -3.628906,9.464843 -0.208267,0.324667 -0.729347,0.836882 -1.560547,1.541016 -0.8348,0.702933 -1.378373,1.054687 -1.628906,1.054687 -0.582,10e-7 -1.581466,-1.083826 -3,-3.246093 -2.4196,-3.64 -3.630859,-7.821149 -3.630859,-12.541016 0,-0.613333 -0.02753,-1.531725 -0.0918,-2.755859 -0.06053,-1.223466 -0.0957,-2.1621 -0.0957,-2.8125 0,-1.782071 0.196001,-3.514378 0.576171,-5.199219 l 0.414063,-0.150391 0.875,-0.283203 0.912109,-0.269531 0.910157,-0.208984 0.910156,-0.173828 h 0.07031 l 0.214844,-0.01953 h 0.355469 l 0.449219,-0.01953 0.570312,-0.01953 h 0.625 0.714844 0.748047 l 0.785156,0.01953 0.822266,0.03906 0.822265,0.05859 0.802735,0.07422 0.785156,0.09766 0.705078,0.109375 c 0.165582,0.259266 0.310506,0.495303 0.380859,0.646485 0.497781,0.746195 0.815602,1.981461 0.970703,3.662109 0.272445,-0.24256 0.503192,-0.407947 0.654297,-0.425781 2.138393,1.014811 3.803183,1.868998 5.03711,2.578125 0.05181,-0.640214 0.09258,-1.28018 0.154297,-1.919922 0.03642,-0.43387 0.07879,-0.674848 0.117187,-1.029297 l 0.03125,0.03125 0.0039,-0.353516 c 0.127095,-1.073092 0.262077,-1.877479 0.41211,-2.107422 0.207067,-0.324666 0.811347,-0.580212 1.810547,-0.757812 -2.025364,-2.152261 -5.21764,-3.539818 -9.519532,-4.197266 L 61.814445,11.642259 53.496086,20.1364 48.550773,20.0407 Z m 23.441407,21.451172 c -0.05318,0.657143 -0.116668,1.313302 -0.158203,1.970703 -0.126635,0.877235 -0.310756,1.749206 -0.521485,2.617187 1.577864,1.008239 2.973781,2.268306 4.177735,3.791016 1.978933,2.526533 2.964843,5.187928 2.964843,7.986328 0,3.561067 -1.032362,6.953908 -3.101562,10.181641 1.642933,-1.3112 2.907595,-3.271339 3.789062,-5.888672 0.76,-2.253333 1.140625,-4.594497 1.140625,-7.029297 V 33.230149 c 0,-1.0624 0.593297,-1.683941 1.779297,-1.869141 l -0.18164,-0.320312 h -4.519532 l -0.09375,0.320312 c 0.6104,0.366934 0.975924,0.607935 1.097657,0.730469 0.2744,0.974 0.410156,1.600027 0.410156,1.871094 v 4.974609 h -0.365234 c -1.550801,-2.1608 -3.256662,-3.879583 -5.111329,-5.15625 -0.352498,-0.238969 -0.802616,-0.511123 -1.30664,-0.800781 z m -0.679688,4.58789 c -0.85228,-0.544598 -1.756079,-1.018927 -2.716797,-1.414062 -0.2416,-0.1508 -0.591894,-0.303298 -1.048828,-0.457031 l -0.410156,0.273437 c -0.156991,2.081251 -0.235289,6.352777 -0.277344,11.673828 2.143376,-3.287247 3.620317,-6.645878 4.453125,-10.076172 z m -4.453125,10.076172 c -0.443541,0.68025 -0.912564,1.359018 -1.412109,2.033203 v 2.865235 c -0.03027,2.1604 -0.153899,3.575073 -0.365235,4.24414 -0.517732,0.578533 -0.988948,0.94299 -1.416015,1.097657 h 4.794922 c 0,-0.09267 -0.176991,-0.237014 -0.525391,-0.435547 -0.351467,-0.1984 -0.556787,-0.373038 -0.617187,-0.523438 -0.334934,-0.640666 -0.501953,-1.705132 -0.501953,-3.197265 0,-2.444184 0.02723,-4.092987 0.04297,-6.083985 z M 57.695312,30.827805 c -0.662472,0.589809 -1.664334,1.809493 -3.042968,3.726563 0.578267,-0.0296 1.064317,0.01507 1.458984,0.138671 0.606933,0.2132 0.897858,0.564696 0.867188,1.048829 l -0.06641,6.017578 c 0.371988,-2.240784 0.5625,-4.722643 0.5625,-7.457032 0,0.758267 0.0438,1.172274 0.125,1.244141 0.209067,0 0.269587,-1.117916 0.189453,-3.353516 -0.01737,-0.492394 -0.05396,-0.934134 -0.09375,-1.365234 z M 41.345703,45.347336 c -0.949192,-2.03561 -1.685465,-4.111919 -2.195312,-6.232422 -0.32344,-1.373241 -0.647361,-3.479635 -0.970703,-6.175781 -0.129064,0.01506 -0.236957,0.08064 -0.31836,0.214844 -1.689867,3.107866 -3.275073,5.579075 -4.74414,7.421875 h -0.298829 l -5.470703,-8.375 c -2.658934,1.119066 -4.427887,2.018725 -5.304687,2.703125 0.413867,-0.06414 0.711472,-0.09766 0.888672,-0.09766 1.074933,0 1.613281,0.713025 1.613281,2.140625 0,-0.2412 -0.08447,5.492278 -0.263672,17.205078 -0.02,1.802133 -0.213797,2.923681 -0.591797,3.363281 -0.461066,0.328134 -0.824424,0.538694 -1.087891,0.621094 h 4.384766 V 57.84343 c -0.9252,-0.0228 -1.386719,-1.161068 -1.386719,-3.427734 0,0.573066 0.0565,-3.537325 0.167969,-12.328125 0,-0.441867 0.03728,-1.113305 0.113281,-2.023438 0.0756,-0.912 0.115235,-1.614323 0.115235,-2.097656 v -0.162109 l 0.363281,-0.199219 5.199219,8.142578 c 1.012934,-1.472533 2.032215,-2.955486 3.041015,-4.449219 1.7344,-2.4612 2.701991,-3.693359 2.900391,-3.693359 0.15267,0.681066 0.230469,1.27623 0.230469,1.779297 l -0.361328,15.884765 c -0.02333,0.814533 -0.164755,1.423738 -0.429688,1.816407 -0.153067,0.195332 -0.605076,0.593631 -1.349609,1.1875 h 7.183594 l -0.232422,-0.232422 c -0.546933,0.0884 -0.931858,-0.37028 -1.150391,-1.382813 -0.131463,-0.614134 -0.189569,-1.319022 -0.167969,-2.107422 z m 17.242188,-28.958984 -3.732422,5.984375 -1.052735,-0.208985 z m -15.015625,0.01758 4.783203,5.775391 -1.052735,0.210937 z m 4.835937,4.150391 h 0.572266 v 1.585937 h -0.572266 z m 1.177735,0 h 0.58789 v 1.585937 h -0.58789 z m 1.232421,0 h 0.570313 v 1.585937 h -0.570313 z m 1.140625,0 h 0.572266 v 1.585937 h -0.572266 z m 1.16211,0 h 0.570312 V 22.14226 H 53.121094 Z M 50.90625,22.29851 v 1.623047 h -0.05078 l -0.16211,-0.01563 -0.269531,-0.02148 -0.375,-0.01953 -0.46289,-0.01953 -0.535157,0.01953 -0.625,0.04102 -0.71289,0.05469 -0.769532,0.117187 -0.83789,0.130859 -0.91211,0.212891 -0.96289,0.248047 -0.998047,0.304687 -1.054688,0.402344 -1.107422,0.458985 -1.125,0.554687 0.03711,-0.03711 0.123047,-0.0957 0.199219,-0.15625 0.265624,-0.189453 0.357422,-0.246093 0.445313,-0.269532 0.537109,-0.30664 0.626953,-0.324219 0.712891,-0.326172 0.804688,-0.34375 0.888671,-0.347656 1.001953,-0.341797 1.087891,-0.304688 1.195313,-0.30664 1.287109,-0.269531 z m 0.394531,1.529297 1.392578,0.230469 1.300782,0.265625 1.197265,0.30664 1.089844,0.304688 1,0.347656 0.910156,0.341797 0.804688,0.345703 0.714844,0.322266 0.621093,0.328125 0.53711,0.304687 0.449218,0.267578 0.353516,0.25 0.267578,0.191407 0.195313,0.152343 0.126953,0.09375 0.0332,0.03906 -1.123047,-0.53711 -1.087888,-0.476561 -1.052734,-0.380859 -1.001953,-0.306641 -0.962891,-0.248047 -0.912109,-0.210937 -0.837891,-0.134766 -0.783203,-0.115234 -0.714844,-0.05664 -0.625,-0.03906 h -0.554687 -0.464844 l -0.375,0.01953 -0.265625,0.01953 -0.177734,0.02148 h -0.05469 z m 34.080078,6.757813 c -1.765467,-10e-7 -3.683506,0.370387 -5.753906,1.117187 -2.067866,0.7484 -3.801344,1.679974 -5.205078,2.806641 0.702267,0 1.325314,0.32107 1.873047,0.960937 0.365467,4.473733 0.731437,7.608611 1.095703,9.402344 0.639867,3.0736 1.753451,6.04079 3.333984,8.900391 0.304267,0.518134 1.035274,1.507947 2.191407,2.96875 1.276667,1.581467 2.05137,2.373046 2.326172,2.373046 0.215467,0 0.882212,-0.548131 2.007812,-1.644531 1.004934,-0.9744 1.645922,-1.641145 1.919922,-2.007812 3.2572,-4.534267 5.186875,-9.236316 5.796875,-14.103516 0.06267,-1.095333 0.137092,-2.190222 0.226562,-3.285156 0.121067,-1.675066 0.259757,-2.652048 0.410157,-2.925781 0.153466,-0.274001 0.594436,-0.486005 1.326172,-0.638672 -2.131733,-2.617333 -5.980162,-3.92383 -11.548829,-3.923828 z m 23.507811,0 c -1.76427,-10e-7 -3.68302,0.370387 -5.75195,1.117187 -2.06814,0.7484 -3.800507,1.679974 -5.201173,2.806641 0.696533,0 1.319939,0.32107 1.869141,0.960937 l 0.230472,3.103516 -0.230472,15.609375 c -0.03093,1.1572 -0.121085,1.904901 -0.271485,2.240234 -0.216534,0.4236 -0.763151,0.852457 -1.646484,1.275391 v 0.410156 h 4.701171 c 2.58746,0 5.43492,-0.870694 8.53906,-2.621094 3.10453,-1.749866 5.35786,-3.736984 6.75586,-5.958984 1.70187,-2.708 2.55664,-5.676611 2.55664,-8.902344 0,-1.3992 -0.32018,-3.239437 -0.95898,-5.523437 0.15347,-0.242533 0.47218,-0.441083 0.95898,-0.59375 -2.1324,-2.617333 -5.98278,-3.92383 -11.55078,-3.923828 z m 13.01172,0.365234 c 0,0.03293 0.25797,0.242539 0.77344,0.638672 0.33826,0.272533 0.5338,0.546312 0.5957,0.820312 0.30506,1.370133 0.45508,2.860343 0.45508,4.47461 0,-0.4872 -0.0912,5.570101 -0.27344,18.167968 -0.0309,1.339466 -0.37998,2.237579 -1.05078,2.695313 l -0.77539,0.455078 h 7.71484 c -1.12667,-0.4876 -1.68945,-1.217806 -1.68945,-2.191406 l 0.13867,-20.587891 c 0,-2.3124 0.6231,-3.802923 1.8711,-4.472656 z m 28.75,0 0.0469,0.273437 c 1.0964,0.184133 1.64257,0.683373 1.64257,1.503907 0,0.09267 -0.57549,1.1137 -1.73242,3.0625 -1.15947,1.944934 -1.81373,3.147781 -1.9668,3.603515 -0.57494,1.675066 -0.86523,3.806312 -0.86523,6.392578 0,2.7696 0.62349,5.507511 1.87109,8.214844 1.33827,2.891733 3.10346,5.069697 5.29493,6.529297 -0.152,-0.395334 -0.24199,-0.608402 -0.27149,-0.638672 -2.6188,-3.987333 -3.92773,-7.929019 -3.92773,-11.824219 0,-3.2572 0.91397,-6.483201 2.74023,-9.677734 2.09654,-3.682 4.65424,-5.569439 7.66797,-5.662109 0.3032,0.3984 0.45508,1.144101 0.45508,2.240234 0,1.490934 0.0166,2.160213 0.0469,2.007812 -0.0923,0.820134 -0.45624,1.230469 -1.0957,1.230469 -2.8604,0 -4.58189,-0.104092 -5.16016,-0.318359 -0.69813,1.066267 -1.10993,1.94777 -1.23046,2.648437 0.2732,-0.4572 1.43128,-0.701751 3.46875,-0.732421 1.27946,0 2.57165,0.01861 3.88085,0.04687 l -0.18359,11.230469 c -0.0313,4.412933 -0.72835,6.665943 -2.09765,6.757813 l -0.0469,0.269531 h 7.71289 c -0.33347,-0.241867 -0.59317,-0.409117 -0.77344,-0.498047 -0.67013,-0.2736 -0.97566,-1.522943 -0.91406,-3.74414 l 0.36523,-19.128907 c 0.0309,-2.0704 0.54772,-3.28799 1.55079,-3.65039 l 0.0937,-0.136719 z m -11.04687,0.04492 c 0.45586,0.3648 0.89821,0.743825 1.32421,1.140625 0.27213,0.334533 0.41016,0.958294 0.41016,1.871093 0,0.396801 0.0317,1.012057 0.0918,1.847657 0.0612,0.839066 0.0918,1.469418 0.0918,1.896484 v 15.796875 c 0,2.827467 -1.1881,4.242188 -3.5625,4.242188 -1.00306,0 -1.87624,-0.402099 -2.62304,-1.207032 -0.74466,-0.807334 -1.11524,-1.713997 -1.11524,-2.716796 0,-1.034802 0.20997,-1.872652 0.63477,-2.511719 -1.18707,0.7888 -2.60227,1.809307 -4.24414,3.05664 v 0.09375 c -0.0313,1.155733 0.89693,2.267319 2.7832,3.333985 1.6736,0.941067 3.16767,1.410156 4.47461,1.410156 1.0968,0 2.56372,-0.416439 4.40625,-1.253906 1.8392,-0.8356 3.16979,-1.238855 3.99219,-1.208985 -0.42546,-0.364 -0.63867,-1.248484 -0.63867,-2.646484 l 0.18359,-19.996094 c 0.0597,-0.8512 0.12084,-1.489749 0.18164,-1.916015 0.24347,-0.458134 0.71482,-0.867622 1.41602,-1.232422 z m -53.720708,1.140625 c 1.126402,0 2.249487,0.317918 3.376954,0.958984 0.5156,0.820134 0.836097,1.382833 0.957031,1.6875 0.4596,0.792267 0.716544,2.207427 0.777344,4.246094 0.0612,1.887867 0.01488,2.832031 -0.136719,2.832031 -0.0612,-0.06347 -0.0918,-0.411228 -0.0918,-1.048828 0,6.3288 -1.020281,11.090223 -3.060547,14.285156 -0.1504,0.2728 -0.530539,0.708202 -1.138672,1.302735 -0.606933,0.594533 -1.00488,0.888671 -1.185547,0.888671 -0.4268,0 -1.156206,-0.913481 -2.191406,-2.738281 -1.764,-3.075333 -2.648437,-6.604817 -2.648437,-10.59375 0,-0.5156 -0.02183,-1.289018 -0.06836,-2.324219 -0.04493,-1.034399 -0.07031,-1.827312 -0.07031,-2.373046 0,-1.5844 0.151251,-3.122301 0.458984,-4.615235 0.727867,-1.671333 2.40455,-2.507812 5.021484,-2.507812 z m 23.921878,0.367187 c 2.2488,0 3.90838,1.109364 4.97265,3.332032 0.82093,1.703865 1.23438,3.817614 1.23438,6.34375 0,2.859332 -0.80004,5.576837 -2.39844,8.148437 -1.598,2.5708 -3.65928,4.49557 -6.18555,5.773437 -1.30653,0.670401 -2.16202,1.003907 -2.55468,1.003907 -0.30654,0 -0.53062,-0.09042 -0.68555,-0.271485 l -0.27539,-0.638672 0.13867,-8.126953 v -9.769531 c 0,-2.132134 0.42507,-3.62796 1.27734,-4.496094 0.85242,-0.8656 2.34443,-1.298828 4.47657,-1.298828 z"
       style="fill:#231f20;fill-opacity:1;fill-rule:evenodd;stroke:none;stroke-width:1.33333325" /><path
       id="path36"
       style="fill:#231f20;fill-opacity:1;fill-rule:evenodd;stroke:none;stroke-width:1.33333325"
       d="m 41.283731,10.265465 5.447066,5.0672 -1.767333,-3.136666 5.158,5.032133 0.752133,-6.962667 h -3.234133 l 2.054133,5.9868 -2.678133,-5.9868 z"
       inkscape:connector-curvature="0" /><path
       id="path38"
       style="fill:#231f20;fill-opacity:1;fill-rule:evenodd;stroke:none;stroke-width:1.33333325"
       d="m 60.905597,10.265465 -5.4464,5.0672 1.7688,-3.136666 -5.158666,5.032133 -0.769467,-6.962667 h 3.2512 l -2.056133,5.9868 2.680533,-5.9868 z"
       inkscape:connector-curvature="0" /><path
       id="path40"
       style="fill:#231f20;fill-opacity:1;fill-rule:evenodd;stroke:none;stroke-width:1.33333325"
       d="m 51.156264,9.7887986 -2.855067,-2.352267 2.7496,-1.321733 2.731467,1.3772 z"
       inkscape:connector-curvature="0" /><path
       id="path42"
       style="fill:#231f20;fill-opacity:1;fill-rule:evenodd;stroke:none;stroke-width:1.33333325"
       d="m 46.531997,6.0565316 1.340267,1.2824 -4.015733,2.449867 -0.05413,-2.352267 z"
       inkscape:connector-curvature="0" /><path
       id="path44"
       style="fill:#231f20;fill-opacity:1;fill-rule:evenodd;stroke:none;stroke-width:1.33333325"
       d="m 43.374531,8.3141316 -2.0008,1.588533 h 2.0008 z"
       inkscape:connector-curvature="0" /><path
       id="path46"
       style="fill:#231f20;fill-opacity:1;fill-rule:evenodd;stroke:none;stroke-width:1.33333325"
       d="m 47.532397,8.5061316 -0.854933,1.396533 h 1.533733 z"
       inkscape:connector-curvature="0" /><path
       id="path48"
       style="fill:#231f20;fill-opacity:1;fill-rule:evenodd;stroke:none;stroke-width:1.33333325"
       d="m 55.65613,6.0565316 -1.340533,1.2824 4.000267,2.449867 0.05507,-2.352267 z"
       inkscape:connector-curvature="0" /><path
       id="path50"
       style="fill:#231f20;fill-opacity:1;fill-rule:evenodd;stroke:none;stroke-width:1.33333325"
       d="m 58.79773,8.3141316 2.017067,1.588533 H 58.79773 Z"
       inkscape:connector-curvature="0" /><path
       id="path52"
       style="fill:#231f20;fill-opacity:1;fill-rule:evenodd;stroke:none;stroke-width:1.33333325"
       d="m 54.637597,8.5061316 0.859067,1.396533 h -1.517867 z"
       inkscape:connector-curvature="0" /><path
       id="path54"
       style="fill:#231f20;fill-opacity:1;fill-rule:nonzero;stroke:none;stroke-width:1.33333325"
       d="m 39.355464,76.382264 c 0,-0.574934 -0.02453,-1.0296 -0.07413,-1.368267 -0.04573,-0.338267 -0.172667,-0.624 -0.373333,-0.8564 -0.204534,-0.236267 -0.5148,-0.356 -0.937734,-0.3632 v -0.183333 h 5.083467 v 0.183333 c -0.606267,0.1024 -0.9872,0.352667 -1.142267,0.750933 -0.155333,0.395067 -0.2328,0.955467 -0.2328,1.678134 v 6.8852 c 0,0.549866 -0.02787,1.015199 -0.0808,1.388933 -0.05667,0.3772 -0.176533,0.7332 -0.356133,1.075333 -0.1832,0.342 -0.468933,0.669733 -0.853333,0.9872 -0.310267,0.2608 -0.6664,0.489867 -1.064667,0.676533 -0.3984,0.190534 -0.8248,0.3352 -1.279733,0.430134 -0.4548,0.0952 -0.877734,0.144666 -1.2692,0.144666 -0.895334,0 -1.7624,-0.201066 -2.598134,-0.6028 -0.8356,-0.3984 -1.565466,-0.952 -2.1856,-1.660266 l 2.139867,-3.508267 0.183333,0.08467 c -0.1904,0.758267 -0.289066,1.336533 -0.289066,1.738266 0,0.504134 0.1232,0.976667 0.3632,1.417334 0.2396,0.440666 0.574533,0.792933 1.0012,1.050266 0.426266,0.257467 0.895333,0.387867 1.4064,0.387867 0.832133,0 1.4668,-0.268 1.903733,-0.807333 0.4372,-0.539334 0.655733,-1.286534 0.655733,-2.245467 z"
       inkscape:connector-curvature="0" /><path
       id="path56"
       style="fill:#231f20;fill-opacity:1;fill-rule:nonzero;stroke:none;stroke-width:1.33333325"
       d="m 45.376931,76.35733 c 0,-0.5288 -0.02493,-0.962266 -0.074,-1.2904 -0.04613,-0.331066 -0.169334,-0.620133 -0.3704,-0.8636 -0.200667,-0.2468 -0.511067,-0.380533 -0.930534,-0.408933 l -0.0212,-0.183333 h 5.1152 v 0.183333 c -0.613333,0.0067 -0.997333,0.2044 -1.149333,0.5888 -0.1516,0.387867 -0.2252,1.0012 -0.2252,1.840267 v 6.825066 c 0,2.3728 1.1384,3.557333 3.415867,3.557333 1.3044,0 2.2844,-0.324266 2.933333,-0.976666 0.652,-0.652267 0.976266,-1.540534 0.976266,-2.661467 v -6.6104 c 0,-0.613466 -0.02467,-1.089333 -0.07373,-1.424133 -0.04614,-0.338667 -0.169336,-0.613467 -0.366936,-0.825067 -0.194,-0.207866 -0.5076,-0.313733 -0.934,-0.313733 v -0.183333 h 4.1212 v 0.183333 c -0.606534,0.07413 -0.9872,0.313733 -1.142534,0.7192 -0.154933,0.401733 -0.2324,0.972933 -0.2324,1.709867 v 5.873466 c 0,1.113734 -0.141066,2.044667 -0.4196,2.785067 -0.278533,0.74 -0.673466,1.325466 -1.181066,1.7556 -0.510933,0.430133 -1.092667,0.7332 -1.752133,0.909333 -0.655867,0.176533 -1.3996,0.264533 -2.224667,0.264533 -0.6872,0 -1.3852,-0.088 -2.090533,-0.264533 -0.708667,-0.176133 -1.322,-0.433467 -1.8436,-0.778933 -0.613467,-0.387734 -1.0224,-0.8568 -1.2268,-1.410134 -0.201067,-0.557066 -0.3032,-1.272533 -0.3032,-2.147199 z"
       inkscape:connector-curvature="0" /><path
       id="path58"
       style="fill:#231f20;fill-opacity:1;fill-rule:nonzero;stroke:none;stroke-width:1.33333325"
       d="m 68.401063,76.325597 c 0.05667,-0.1516 0.1164,-0.3244 0.183334,-0.525067 0.06347,-0.201066 0.113066,-0.391466 0.148133,-0.5748 0.0352,-0.18 0.05293,-0.331466 0.05293,-0.447466 0,-0.571467 -0.317066,-0.895867 -0.951733,-0.969867 v -0.197333 h 3.761467 v 0.197333 c -0.2396,0.02493 -0.454667,0.112933 -0.641467,0.257333 -0.1832,0.1448 -0.3352,0.324267 -0.454933,0.5432 -0.116134,0.215067 -0.221867,0.447467 -0.313734,0.694267 -0.09147,0.250533 -0.179866,0.483067 -0.264266,0.7052 l -3.63853,9.666533 c -0.183334,0.5148 -0.278134,0.860267 -0.278134,1.032933 0,0.356134 0.221867,0.571067 0.662534,0.6384 v 0.186667 h -4.061067 v -0.186667 c 0.433467,-0.06733 0.652,-0.296266 0.652,-0.680666 0,-0.215067 -0.09867,-0.6168 -0.2892,-1.209067 l -3.267733,-9.3672 c -0.2328,-0.708266 -0.455067,-1.251466 -0.6596,-1.6252 -0.207867,-0.3772 -0.5216,-0.5956 -0.941067,-0.655733 v -0.197333 h 4.6288 v 0.197333 c -0.592267,0.1308 -0.888267,0.455067 -0.888267,0.969867 0,0.1232 0.02467,0.292533 0.07373,0.5004 0.04613,0.2116 0.09533,0.391066 0.148133,0.542666 0.05293,0.152 0.113067,0.328134 0.18,0.525334 l 2.926137,8.986666 z"
       inkscape:connector-curvature="0" /><path
       id="path60"
       style="fill:#231f20;fill-opacity:1;fill-rule:nonzero;stroke:none;stroke-width:1.33333325"
       d="m 83.71573,77.609064 -0.165867,0.07373 c -0.2888,-0.6872 -0.708267,-1.262 -1.258267,-1.720133 -0.550266,-0.461864 -1.181066,-0.803864 -1.889733,-1.026131 -0.708666,-0.221866 -1.438533,-0.3348 -2.189466,-0.3348 -0.764934,0 -1.279734,0.1092 -1.544,0.328 -0.264534,0.221867 -0.398267,0.701467 -0.398267,1.441867 v 1.1952 h 1.632267 0.465333 c 0.3632,0 0.680267,-0.02507 0.9448,-0.07787 0.264267,-0.0492 0.486533,-0.1728 0.6664,-0.359466 0.179467,-0.190534 0.2676,-0.461867 0.2676,-0.817867 l 0.1976,-0.07413 0.814533,4.7452 -0.165866,0.06013 c -0.2328,-0.7828 -0.539334,-1.3504 -0.9132,-1.699333 -0.3772,-0.352667 -0.807334,-0.5676 -1.290267,-0.6452 -0.4864,-0.0812 -1.191333,-0.119734 -2.1116,-0.119734 h -0.5076 v 5.665067 c 0,0.6524 0.03507,1.1248 0.1092,1.417333 0.07067,0.292533 0.2608,0.5148 0.5676,0.669733 0.306533,0.155334 0.807333,0.2328 1.5016,0.2328 2.8944,0 5.0064,-1.3572 6.342533,-4.075466 l 0.2184,0.0636 -1.797867,5.259866 c -0.08467,-0.1164 -0.201066,-0.193866 -0.356133,-0.2256 -0.154933,-0.03506 -0.345333,-0.05293 -0.5744,-0.05293 h -9.7092 v -0.186667 c 0.426667,-0.06733 0.7404,-0.215066 0.934267,-0.444533 0.197333,-0.2256 0.3208,-0.489733 0.366533,-0.789467 0.0496,-0.299733 0.07413,-0.698133 0.07413,-1.202266 v -8.520933 c 0,-0.7756 -0.07747,-1.3784 -0.236267,-1.805067 -0.158667,-0.4264 -0.539333,-0.683733 -1.138667,-0.7756 v -0.197333 h 9.0496 c 0.55,0 0.930933,-0.0808 1.146,-0.2468 z"
       inkscape:connector-curvature="0" /><path
       id="path62"
       style="fill:#231f20;fill-opacity:1;fill-rule:nonzero;stroke:none;stroke-width:1.33333325"
       d="m 89.387996,85.097063 c 0,0.5144 0.1304,0.888134 0.3912,1.121067 0.2608,0.228933 0.655734,0.345333 1.177734,0.345333 0.888266,0 1.723866,-0.1692 2.5028,-0.511333 0.7828,-0.3416 1.463066,-0.817867 2.044799,-1.427467 0.5816,-0.606666 1.071867,-1.332666 1.4736,-2.171733 l 0.193867,0.09147 -1.815333,5.267066 C 95.183996,87.624797 94.775063,87.53293 94.12613,87.53293 h -8.4364 v -0.186667 c 0.606266,-0.0884 0.987333,-0.324666 1.142266,-0.7124 0.155334,-0.384 0.2328,-0.958933 0.2328,-1.723866 v -8.520933 c 0,-0.5216 -0.02453,-0.944934 -0.07413,-1.2692 -0.04573,-0.324267 -0.169333,-0.6096 -0.366533,-0.853067 -0.193867,-0.243333 -0.5076,-0.398267 -0.9344,-0.4584 v -0.197333 h 5.073333 v 0.197333 c -0.606667,0.05293 -0.9872,0.282267 -1.142533,0.684133 -0.154934,0.405467 -0.232534,0.983334 -0.232534,1.7416 z"
       inkscape:connector-curvature="0" /><path
       id="path64"
       style="fill:#231f20;fill-opacity:1;fill-rule:nonzero;stroke:none;stroke-width:1.33333325"
       d="m 103.56693,84.765597 c 0,0.821333 0.0779,1.448666 0.2328,1.882533 0.15533,0.4336 0.536,0.6664 1.14227,0.7016 v 0.1832 h -5.094137 v -0.1832 c 0.426397,-0.0496 0.740397,-0.183333 0.934397,-0.401867 0.1972,-0.222133 0.3204,-0.4868 0.36654,-0.796666 0.0492,-0.310267 0.0741,-0.723067 0.0741,-1.2412 v -3.810933 l -3.370667,-5.330267 c -0.412267,-0.652267 -0.750534,-1.135333 -1.015067,-1.4456 -0.268,-0.3104 -0.616933,-0.483067 -1.0576,-0.5148 v -0.197333 h 5.443334 v 0.197333 c -0.68747,0.03173 -1.03293,0.310267 -1.03293,0.825067 0,0.469066 0.28186,1.135333 0.8496,2.0024 l 1.97746,3.151733 1.94267,-3.190267 c 0.31027,-0.504266 0.54653,-0.923733 0.70867,-1.2624 0.16213,-0.334933 0.24306,-0.624 0.24306,-0.8564 0,-0.4128 -0.31,-0.6384 -0.93053,-0.670133 v -0.197333 h 4.10333 v 0.197333 c -0.26413,0.02493 -0.4936,0.0952 -0.69426,0.2044 -0.1976,0.113067 -0.3704,0.24 -0.51134,0.387867 -0.14093,0.148133 -0.28533,0.328 -0.43693,0.539733 -0.152,0.207867 -0.31027,0.4368 -0.47627,0.6836 l -3.39853,5.475067 z"
       inkscape:connector-curvature="0" /><path
       id="path66"
       style="fill:#231f20;fill-opacity:1;fill-rule:nonzero;stroke:none;stroke-width:1.33333325"
       d="m 117.7992,73.611064 c 1.11413,0 1.90026,0.1728 2.3588,0.5148 0.458,0.345466 0.68706,0.892 0.68706,1.642933 0,0.764933 -0.282,1.416933 -0.84586,1.956267 -0.56427,0.5432 -1.29747,1.054133 -2.2,1.533733 1.4456,1.6112 2.68306,3.715733 3.7088,6.310266 0.17986,0.4268 0.31373,0.729867 0.40173,0.909734 0.0919,0.18 0.22227,0.356133 0.3984,0.5288 0.17653,0.169333 0.40213,0.285733 0.67693,0.338666 v 0.186667 h -4.46333 v -0.186667 c 0.52547,-0.1024 0.78653,-0.3772 0.78653,-0.825066 0,-0.2468 -0.0635,-0.549867 -0.18706,-0.902534 -0.1232,-0.356 -0.26414,-0.698133 -0.41947,-1.025733 -0.15493,-0.3244 -0.33493,-0.670133 -0.53933,-1.0368 l -2.17854,-3.148 -0.20826,-0.281866 -2.45707,0.8496 v 3.789733 c 0,0.571066 0.0245,1.0152 0.074,1.332666 0.0457,0.317067 0.16907,0.588534 0.37013,0.814134 0.20107,0.229333 0.51134,0.373733 0.9308,0.433866 v 0.186667 h -5.0732 v -0.186667 c 0.42667,-0.06733 0.7404,-0.215066 0.93427,-0.444533 0.19733,-0.2256 0.32093,-0.489733 0.36667,-0.792933 0.0495,-0.303467 0.074,-0.708667 0.074,-1.22 v -8.499733 c 0,-0.5216 -0.0245,-0.944934 -0.074,-1.2692 -0.0457,-0.324267 -0.16934,-0.606267 -0.36667,-0.8496 -0.19387,-0.2468 -0.5076,-0.3984 -0.93427,-0.461867 v -0.197333 z m -4.48067,6.3704 c 1.2268,-0.3488 2.4008,-0.8424 3.5324,-1.484267 1.12813,-0.637867 1.692,-1.381733 1.692,-2.2352 0,-0.680267 -0.22187,-1.127733 -0.66973,-1.339467 -0.44747,-0.215066 -1.07147,-0.3208 -1.86814,-0.3208 -1.36453,0 -2.1756,0.155334 -2.4292,0.4652 -0.17266,0.176534 -0.25733,0.613467 -0.25733,1.308134 z"
       inkscape:connector-curvature="0" /><path
       id="path68"
       style="fill:#231f20;fill-opacity:1;fill-rule:nonzero;stroke:none;stroke-width:1.33333325"
       d="m 126.96186,84.765597 c 0,0.764933 0.0779,1.3644 0.2328,1.797866 0.15494,0.4336 0.536,0.6944 1.14214,0.7828 v 0.186667 h -5.0728 v -0.186667 c 0.42626,-0.06013 0.74,-0.201066 0.93386,-0.423333 0.19774,-0.2184 0.32094,-0.482933 0.36707,-0.789467 0.0491,-0.306933 0.0736,-0.715866 0.0736,-1.223466 v -8.520933 c 0,-0.5216 -0.0245,-0.944934 -0.0736,-1.2692 -0.0461,-0.324267 -0.16933,-0.6096 -0.36707,-0.853067 -0.19386,-0.243333 -0.5076,-0.398267 -0.93386,-0.4584 v -0.197333 h 5.0728 v 0.197333 c -0.60614,0.0952 -0.9872,0.342 -1.14214,0.744133 -0.15493,0.3984 -0.2328,0.965734 -0.2328,1.702667 z"
       inkscape:connector-curvature="0" /><path
       id="path70"
       style="fill:#231f20;fill-opacity:1;fill-rule:nonzero;stroke:none;stroke-width:1.33333325"
       d="m 130.98106,76.389064 c 0,-0.786134 -0.0776,-1.389067 -0.23293,-1.812 -0.15493,-0.4228 -0.53547,-0.680267 -1.14213,-0.768667 v -0.197333 h 5.07333 v 0.197333 c -0.60667,0.05293 -0.98733,0.282267 -1.14227,0.684133 -0.15533,0.405467 -0.2328,0.983334 -0.2328,1.7416 v 2.580667 l 1.81907,-1.456267 c 0.35613,-0.282 0.7476,-0.609733 1.17053,-0.980133 0.42294,-0.37 0.80734,-0.750933 1.1528,-1.134933 0.342,-0.387734 0.5148,-0.694667 0.5148,-0.930934 0,-0.179466 -0.0457,-0.299733 -0.1376,-0.366533 -0.0953,-0.0636 -0.23626,-0.112667 -0.43013,-0.1376 v -0.197333 h 5.0944 v 0.197333 c -0.49734,0.02493 -0.96947,0.1376 -1.41733,0.3352 -0.44787,0.197333 -0.83907,0.415733 -1.17054,0.6592 -0.3348,0.2468 -0.79333,0.606267 -1.3712,1.078667 l -1.57946,1.314933 c 0.72266,0.680667 1.3644,1.396133 1.9284,2.139867 0.5604,0.7476 1.06466,1.5372 1.51253,2.3728 0.44747,0.831866 0.8564,1.716666 1.2268,2.654399 l 0.4052,0.969867 c 0.18333,0.468667 0.328,0.810667 0.43386,1.025733 0.102,0.2184 0.2536,0.430134 0.45467,0.6312 0.19733,0.2044 0.44067,0.324267 0.72267,0.356 v 0.186667 h -4.66053 v -0.186667 c 0.49706,-0.0812 0.74386,-0.356 0.74386,-0.825066 0,-0.504134 -0.16213,-1.16 -0.48986,-1.9744 -0.32814,-0.8108 -0.68067,-1.544 -1.05787,-2.199733 -0.71547,-1.230267 -1.6676,-2.499334 -2.85213,-3.800267 l -2.01294,1.600533 v 4.618267 c 0,0.7828 0.0775,1.396133 0.2328,1.833066 0.15494,0.437334 0.5356,0.687467 1.14227,0.7476 V 87.53293 H 129.606 v -0.186667 c 0.42666,-0.06733 0.7404,-0.215066 0.93426,-0.444533 0.19774,-0.2256 0.32094,-0.489733 0.36667,-0.789467 0.0495,-0.299733 0.0741,-0.701466 0.0741,-1.202266 z"
       inkscape:connector-curvature="0" /><path
       id="path72"
       style="fill:#231f20;fill-opacity:1;fill-rule:nonzero;stroke:none;stroke-width:1.33333325"
       d="m 146.47173,84.70213 c -0.2256,0.627333 -0.342,1.128133 -0.342,1.498133 0,0.324267 0.11306,0.588934 0.33866,0.79 0.22187,0.2044 0.49694,0.320534 0.81787,0.356 v 0.186667 h -4.30453 v -0.186667 c 0.282,-0.06733 0.5004,-0.148133 0.652,-0.243466 0.1516,-0.09147 0.29626,-0.236134 0.44453,-0.4372 0.3064,-0.447467 0.624,-1.103334 0.94827,-1.963467 l 3.40906,-8.993466 c 0.0669,-0.179867 0.1232,-0.3348 0.16894,-0.4652 0.0457,-0.1304 0.0813,-0.2608 0.1092,-0.387734 0.0284,-0.127066 0.0389,-0.254 0.0389,-0.3772 0,-0.1872 -0.06,-0.334933 -0.17987,-0.447866 -0.11973,-0.1164 -0.27853,-0.190534 -0.4792,-0.222267 v -0.197333 h 4.69907 v 0.197333 c -0.4124,0.1096 -0.62027,0.3632 -0.62027,0.7616 0,0.187067 0.0669,0.4584 0.19734,0.817867 l 3.6136,10.410666 c 0.254,0.592267 0.44066,0.9728 0.56053,1.1456 0.1236,0.172667 0.36653,0.306933 0.72987,0.402133 v 0.186667 h -4.8016 v -0.186667 c 0.69426,-0.1588 1.0436,-0.6524 1.0436,-1.488 0,-0.6452 -0.254,-1.322133 -0.76507,-2.0236 -0.50787,-0.701466 -1.20947,-1.290266 -2.0976,-1.762666 -0.88853,-0.468667 -1.87573,-0.715467 -2.9616,-0.736667 z m 3.45826,-9.501066 -1.91773,5.083466 c 0.818,0 1.60413,0.141067 2.35173,0.4268 0.75094,0.285734 1.39227,0.7048 1.92107,1.2552 z"
       inkscape:connector-curvature="0" /><path
       id="path74"
       style="fill:#231f20;fill-opacity:1;fill-rule:nonzero;stroke:none;stroke-width:1.33333325"
       d="m 52.750397,101.41893 c 0.1868,-0.69013 0.283467,-1.12027 0.283467,-1.28347 0,-0.41653 -0.236533,-0.63986 -0.703333,-0.6732 V 99.2888 h 3.083333 v 0.17346 c -0.24,0 -0.443334,0.0632 -0.61,0.18974 -0.166667,0.12706 -0.296667,0.27666 -0.39,0.45013 -0.09333,0.17347 -0.196533,0.42333 -0.306533,0.75333 -0.11,0.32987 -0.176534,0.5268 -0.196534,0.59 l -2.020133,6.27014 c -0.130133,0.44333 -0.1936,0.72986 -0.1936,0.85986 0,0.2468 0.140267,0.38027 0.420267,0.40027 v 0.17653 h -3.046667 v -0.17653 c 0.216667,-0.02 0.3232,-0.12693 0.3232,-0.32013 0,-0.17 -0.06013,-0.4168 -0.176533,-0.74347 l -1.600267,-4.42307 -1.579867,4.53987 c -0.103066,0.30013 -0.1568,0.50013 -0.1568,0.60667 0,0.17986 0.11,0.29666 0.333334,0.34013 v 0.17653 h -2.956667 v -0.17653 c 0.2536,-0.0567 0.380133,-0.20333 0.380133,-0.44027 0,-0.15653 -0.06,-0.44 -0.1768,-0.85 l -1.943066,-6.50306 c -0.173467,-0.59347 -0.3368,-1.02694 -0.4868,-1.3036 -0.15,-0.27667 -0.413467,-0.41654 -0.79,-0.41654 V 99.2888 h 3.9432 v 0.17346 c -0.443334,0.0333 -0.6632,0.28654 -0.6632,0.76307 0,0.22 0.05667,0.56013 0.173466,1.0168 l 1.619867,6.38653 2.683467,-8.1732 h 0.1564 l 2.8404,7.85987 z"
       inkscape:connector-curvature="0" /><path
       id="path76"
       style="fill:#231f20;fill-opacity:1;fill-rule:nonzero;stroke:none;stroke-width:1.33333325"
       d="m 67.947197,101.41893 c 0.186666,-0.69013 0.283466,-1.12027 0.283466,-1.28347 0,-0.41653 -0.236666,-0.63986 -0.703333,-0.6732 V 99.2888 h 3.083333 v 0.17346 c -0.24,0 -0.443333,0.0632 -0.610133,0.18974 -0.166667,0.12706 -0.296667,0.27666 -0.39,0.45013 -0.09333,0.17347 -0.196533,0.42333 -0.306533,0.75333 -0.11,0.32987 -0.176534,0.5268 -0.196534,0.59 l -2.020133,6.27014 c -0.13,0.44333 -0.193466,0.72986 -0.193466,0.85986 0,0.2468 0.140133,0.38027 0.420266,0.40027 v 0.17653 h -3.046666 v -0.17653 c 0.216533,-0.02 0.323066,-0.12693 0.323066,-0.32013 0,-0.17 -0.06,-0.4168 -0.1764,-0.74347 l -1.600266,-4.42307 -1.579867,4.53987 c -0.1032,0.30013 -0.1568,0.50013 -0.1568,0.60667 0,0.17986 0.109867,0.29666 0.333333,0.34013 v 0.17653 h -2.9568 v -0.17653 c 0.2536,-0.0567 0.380267,-0.20333 0.380267,-0.44027 0,-0.15653 -0.06013,-0.44 -0.176933,-0.85 l -1.943067,-6.50306 c -0.173467,-0.59347 -0.336667,-1.02694 -0.4868,-1.3036 -0.15,-0.27667 -0.413467,-0.41654 -0.789867,-0.41654 V 99.2888 h 3.9432 v 0.17346 c -0.443333,0.0333 -0.663333,0.28654 -0.663333,0.76307 0,0.22 0.05667,0.56013 0.173467,1.0168 l 1.619866,6.38653 2.683467,-8.1732 h 0.156533 l 2.840267,7.85987 z"
       inkscape:connector-curvature="0" /><path
       id="path78"
       style="fill:#231f20;fill-opacity:1;fill-rule:nonzero;stroke:none;stroke-width:1.33333325"
       d="m 83.143863,101.41893 c 0.1868,-0.69013 0.283467,-1.12027 0.283467,-1.28347 0,-0.41653 -0.236534,-0.63986 -0.703334,-0.6732 V 99.2888 h 3.083334 v 0.17346 c -0.24,0 -0.443334,0.0632 -0.61,0.18974 -0.166667,0.12706 -0.296667,0.27666 -0.39,0.45013 -0.09347,0.17347 -0.196534,0.42333 -0.306534,0.75333 -0.11,0.32987 -0.176533,0.5268 -0.196533,0.59 l -2.020267,6.27014 c -0.13,0.44333 -0.193466,0.72986 -0.193466,0.85986 0,0.2468 0.140266,0.38027 0.420266,0.40027 v 0.17653 H 79.46413 v -0.17653 c 0.216533,-0.02 0.3232,-0.12693 0.3232,-0.32013 0,-0.17 -0.06013,-0.4168 -0.176533,-0.74347 l -1.600267,-4.42307 -1.579867,4.53987 c -0.1032,0.30013 -0.1568,0.50013 -0.1568,0.60667 0,0.17986 0.11,0.29666 0.333334,0.34013 v 0.17653 H 73.65053 v -0.17653 c 0.2536,-0.0567 0.380133,-0.20333 0.380133,-0.44027 0,-0.15653 -0.06,-0.44 -0.1768,-0.85 l -1.943066,-6.50306 c -0.173467,-0.59347 -0.3368,-1.02694 -0.4868,-1.3036 -0.150134,-0.27667 -0.413467,-0.41654 -0.79,-0.41654 V 99.2888 h 3.9432 v 0.17346 c -0.443334,0.0333 -0.663334,0.28654 -0.663334,0.76307 0,0.22 0.0568,0.56013 0.1736,1.0168 l 1.619867,6.38653 2.683467,-8.1732 h 0.1564 l 2.840399,7.85987 z"
       inkscape:connector-curvature="0" /><path
       id="path80"
       style="fill:#231f20;fill-opacity:1;fill-rule:nonzero;stroke:none;stroke-width:1.33333325"
       d="m 87.37733,107.9488 c 0,-0.40667 0.126666,-0.7464 0.380266,-1.02307 0.2532,-0.27667 0.579734,-0.41693 0.976667,-0.41693 0.37,0 0.669733,0.14026 0.906667,0.41693 0.2332,0.27667 0.35,0.59987 0.35,0.96307 0,0.38013 -0.127067,0.71693 -0.380267,1.0136 -0.2532,0.2964 -0.566533,0.4464 -0.936533,0.4464 -0.3568,0 -0.663334,-0.1432 -0.916534,-0.42667 -0.2536,-0.2832 -0.380266,-0.60667 -0.380266,-0.97333"
       inkscape:connector-curvature="0" /><path
       id="path82"
       style="fill:#231f20;fill-opacity:1;fill-rule:nonzero;stroke:none;stroke-width:1.33333325"
       d="m 101.27093,98.51213 -0.1868,-0.0401 v -0.13294 c -0.02,-0.23026 -0.0967,-0.37346 -0.2332,-0.4404 -0.1368,-0.0631 -0.4032,-0.0964 -0.8,-0.0964 h -4.426667 c 0,0.79 -0.106534,1.53987 -0.320134,2.24667 0.2468,-0.0367 0.483467,-0.0665 0.710134,-0.0867 0.229866,-0.02 0.456666,-0.0365 0.6868,-0.0532 0.2264,-0.0171 0.489866,-0.0337 0.789866,-0.0537 0.130134,-0.0133 0.333467,-0.02 0.613467,-0.02 0.94,0 1.853067,0.18027 2.739734,0.54347 0.89013,0.36026 1.6136,0.89346 2.17027,1.59693 0.55666,0.70333 0.83333,1.53627 0.83333,2.49973 0,0.7268 -0.17347,1.39987 -0.51667,2.0168 -0.34693,0.61334 -0.81666,1.1432 -1.41693,1.57974 -0.59973,0.4404 -1.28307,0.78013 -2.050001,1.0236 -0.769866,0.24 -1.546533,0.36013 -2.333066,0.36013 -1.7136,0 -3.316933,-0.46333 -4.8068,-1.38667 l 1.886667,-3.11706 0.153066,0.0968 c -0.1164,0.29333 -0.173066,0.57333 -0.173066,0.84026 0,0.41307 0.09987,0.80654 0.303199,1.18974 0.200267,0.38026 0.5268,0.6936 0.98,0.94333 0.453467,0.2468 1.030267,0.37 1.7336,0.37 0.683334,0 1.339867,-0.15333 1.97,-0.45987 0.626531,-0.30653 1.136401,-0.73666 1.526531,-1.29 0.39,-0.55333 0.58654,-1.18 0.58654,-1.87653 0,-0.73707 -0.22,-1.3368 -0.66334,-1.80693 -0.44333,-0.46987 -1,-0.80667 -1.669731,-1.00654 -0.6736,-0.20333 -1.373466,-0.30346 -2.110133,-0.30346 -1.236667,0 -2.429867,0.23346 -3.576533,0.70333 0.299733,-0.70987 0.5332,-1.47333 0.693067,-2.29 0.163333,-0.8168 0.2468,-1.64 0.2468,-2.47333 0,-0.66334 -0.05027,-1.27334 -0.146534,-1.83347 0.2532,0.1568 0.666667,0.2336 1.24,0.2336 h 5.323064 c 0.28694,0 0.4936,-0.0133 0.6236,-0.0401 0.13014,-0.0268 0.24987,-0.0899 0.3632,-0.19347 z"
       inkscape:connector-curvature="0" /><path
       id="path84"
       style="fill:#231f20;fill-opacity:1;fill-rule:nonzero;stroke:none;stroke-width:1.33333325"
       d="m 116.60106,105.23893 c 0,0.69653 -0.15653,1.31 -0.4664,1.84333 -0.31333,0.5332 -0.73026,0.9732 -1.25026,1.31334 -0.52014,0.3432 -1.09987,0.5968 -1.74014,0.76653 -0.6432,0.17 -1.29293,0.2536 -1.95666,0.2536 -0.64974,0 -1.29974,-0.0768 -1.9532,-0.2336 -0.65014,-0.15653 -1.23667,-0.39307 -1.75974,-0.7132 -0.52346,-0.32013 -0.9468,-0.74 -1.27373,-1.26347 -0.3232,-0.5232 -0.4864,-1.1332 -0.4864,-1.82973 0,-0.91693 0.3,-1.68333 0.9032,-2.2968 0.59987,-0.6168 1.37013,-1.0436 2.30667,-1.2836 -0.68334,-0.10653 -1.27334,-0.4096 -1.76987,-0.91307 -0.49667,-0.5068 -0.74693,-1.09346 -0.74693,-1.76693 0,-0.78653 0.24346,-1.43653 0.7336,-1.94307 0.48653,-0.5068 1.10333,-0.87346 1.84973,-1.10026 0.74347,-0.22334 1.49667,-0.33627 2.26013,-0.33627 0.54654,0 1.08667,0.0631 1.62334,0.18627 0.53666,0.1236 1.03,0.31333 1.47666,0.56693 0.44334,0.2532 0.81,0.59333 1.09347,1.01667 0.28347,0.42333 0.42333,0.92 0.42333,1.49333 0,0.74987 -0.24986,1.37987 -0.74986,1.8868 -0.50347,0.50973 -1.13014,0.80987 -1.8868,0.9096 0.57333,0.0768 1.11986,0.27667 1.64333,0.59347 0.52013,0.32013 0.94,0.7268 1.25333,1.2268 0.31667,0.49666 0.4732,1.0368 0.4732,1.62333 z m -5.43013,-8.54667 c -0.5064,0 -0.96973,0.0865 -1.38973,0.26 -0.42027,0.1732 -0.76,0.4332 -1.0136,0.7832 -0.2532,0.34654 -0.37987,0.77667 -0.37987,1.28694 0,0.48293 0.13,0.8964 0.38667,1.2464 0.25666,0.35 0.5968,0.61 1.02346,0.78013 0.42667,0.17013 0.88667,0.2532 1.37307,0.2532 0.75667,0 1.39013,-0.19987 1.9068,-0.6032 0.51333,-0.40027 0.76987,-0.9736 0.76987,-1.71667 0,-0.51026 -0.11974,-0.93346 -0.35974,-1.27666 -0.24346,-0.3436 -0.56653,-0.5968 -0.9732,-0.76347 -0.40666,-0.16667 -0.85346,-0.24987 -1.34373,-0.24987 z m -2.40333,6.48347 c -0.51974,0.5 -0.77974,1.21653 -0.77974,2.1532 0,0.6032 0.13,1.1432 0.39,1.6164 0.26014,0.47707 0.62667,0.8436 1.09987,1.10373 0.4732,0.26 1.01667,0.39 1.63653,0.39 0.6236,0 1.17694,-0.12026 1.6604,-0.3568 0.48307,-0.23653 0.85987,-0.58653 1.13654,-1.04653 0.27666,-0.46333 0.4164,-1.00013 0.4164,-1.61013 0,-0.9536 -0.2932,-1.71027 -0.8832,-2.26014 -0.59,-0.55333 -1.36667,-0.83 -2.33014,-0.83 -0.42333,0 -0.84653,0.07 -1.26653,0.21014 -0.41987,0.13986 -0.78,0.35 -1.08013,0.63013"
       inkscape:connector-curvature="0" /><path
       id="path86"
       style="fill:#231f20;fill-opacity:1;fill-rule:nonzero;stroke:none;stroke-width:1.33333325"
       d="m 126.878,98.51213 -0.1868,-0.0401 v -0.13294 c -0.02,-0.23026 -0.0967,-0.37346 -0.2332,-0.4404 -0.1368,-0.0631 -0.4032,-0.0964 -0.80014,-0.0964 h -4.42653 c 0,0.79 -0.10653,1.53987 -0.32013,2.24667 0.2468,-0.0367 0.48346,-0.0665 0.71013,-0.0867 0.22987,-0.02 0.45667,-0.0365 0.6868,-0.0532 0.2264,-0.0171 0.48987,-0.0337 0.78987,-0.0537 0.13,-0.0133 0.33346,-0.02 0.61346,-0.02 0.94,0 1.85307,0.18027 2.73974,0.54347 0.89013,0.36026 1.61346,0.89346 2.17026,1.59693 0.55667,0.70333 0.83334,1.53627 0.83334,2.49973 0,0.7268 -0.17347,1.39987 -0.51667,2.0168 -0.34693,0.61334 -0.81667,1.1432 -1.41693,1.57974 -0.59974,0.4404 -1.28307,0.78013 -2.05,1.0236 -0.76987,0.24 -1.54654,0.36013 -2.33307,0.36013 -1.7136,0 -3.31693,-0.46333 -4.8068,-1.38667 l 1.88667,-3.11706 0.15306,0.0968 c -0.1164,0.29333 -0.17306,0.57333 -0.17306,0.84026 0,0.41307 0.0997,0.80654 0.3032,1.18974 0.20026,0.38026 0.5268,0.6936 0.98,0.94333 0.45346,0.2468 1.03026,0.37 1.7336,0.37 0.68333,0 1.33986,-0.15333 1.96986,-0.45987 0.62667,-0.30653 1.13654,-0.73666 1.52667,-1.29 0.39,-0.55333 0.58653,-1.18 0.58653,-1.87653 0,-0.73707 -0.22,-1.3368 -0.66333,-1.80693 -0.44333,-0.46987 -1,-0.80667 -1.66973,-1.00654 -0.6736,-0.20333 -1.37347,-0.30346 -2.11014,-0.30346 -1.23666,0 -2.42986,0.23346 -3.57653,0.70333 0.2996,-0.70987 0.5332,-1.47333 0.69307,-2.29 0.16333,-0.8168 0.2468,-1.64 0.2468,-2.47333 0,-0.66334 -0.0503,-1.27334 -0.14654,-1.83347 0.2532,0.1568 0.66667,0.2336 1.24,0.2336 h 5.32307 c 0.28693,0 0.4936,-0.0133 0.6236,-0.0401 0.13,-0.0268 0.24987,-0.0899 0.3632,-0.19347 z"
       inkscape:connector-curvature="0" /><path
       id="path88"
       style="fill:#231f20;fill-opacity:1;fill-rule:nonzero;stroke:none;stroke-width:1.33333325"
       d="m 132.1848,107.9488 c 0,-0.40667 0.12666,-0.7464 0.38026,-1.02307 0.2532,-0.27667 0.57974,-0.41693 0.97654,-0.41693 0.37,0 0.66973,0.14026 0.9068,0.41693 0.2332,0.27667 0.34986,0.59987 0.34986,0.96307 0,0.38013 -0.12693,0.71693 -0.38013,1.0136 -0.2532,0.2964 -0.56653,0.4464 -0.93653,0.4464 -0.3568,0 -0.66334,-0.1432 -0.91654,-0.42667 -0.2536,-0.2832 -0.38026,-0.60667 -0.38026,-0.97333"
       inkscape:connector-curvature="0" /><path
       id="path90"
       style="fill:#231f20;fill-opacity:1;fill-rule:nonzero;stroke:none;stroke-width:1.33333325"
       d="m 140.8116,95.4688 v 11.22333 c 0,0.71013 0.0703,1.26013 0.20666,1.65013 0.1368,0.39014 0.4668,0.59987 0.99333,0.63347 v 0.17653 h -4.43986 v -0.17653 c 0.3632,-0.0435 0.63653,-0.18027 0.81333,-0.4036 0.18,-0.2264 0.28987,-0.48 0.32654,-0.76307 0.0401,-0.28346 0.0601,-0.65693 0.0601,-1.11693 v -8.24307 c 0,-0.73706 -0.0699,-1.29346 -0.21013,-1.67026 -0.13987,-0.37987 -0.46974,-0.58014 -0.98987,-0.60654 v -0.1868 z"
       inkscape:connector-curvature="0" /><path
       id="path92"
       style="fill:#231f20;fill-opacity:1;fill-rule:nonzero;stroke:none;stroke-width:1.33333325"
       d="m 143.93159,100.33533 h -1.31986 v -0.18627 c 0.5432,-0.13 0.95666,-0.43013 1.24653,-0.89693 0.29027,-0.46973 0.43347,-1.00347 0.43347,-1.6032 0,-0.22 -0.0367,-0.56013 -0.1168,-1.0168 l 1.7968,-0.80013 v 3.64346 h 1.59986 c 0.31334,0 0.56014,-0.02 0.74347,-0.06 0.17987,-0.0367 0.36013,-0.13346 0.53667,-0.28306 l -0.55667,1.41653 c -0.13653,-0.1432 -0.42333,-0.2136 -0.85987,-0.2136 h -1.46346 v 5.83373 c 0,0.44974 0.0367,0.81974 0.10653,1.11654 0.0733,0.29666 0.21027,0.52 0.41693,0.67346 0.20334,0.15307 0.50307,0.22974 0.90334,0.22974 0.7532,0 1.38333,-0.30987 1.8932,-0.92667 l 0.1168,0.0669 -0.6736,1.64667 c -0.77974,0.24987 -1.61307,0.37307 -2.49974,0.37307 -0.61,0 -1.08666,-0.1232 -1.42333,-0.37 -0.34027,-0.24987 -0.57,-0.5832 -0.6936,-1.00654 -0.1232,-0.42333 -0.18667,-0.93653 -0.18667,-1.5436 z"
       inkscape:connector-curvature="0" /></g></svg>