<?xml version="1.0" encoding="UTF-8"?> <svg xmlns="http://www.w3.org/2000/svg" viewBox="0 0 296.96 78.25"><title>solidscape_by_prodways_logo_2020</title><g id="Layer_2" data-name="Layer 2"><g id="Calque_1" data-name="Calque 1"><path d="M9.64,39.9a5.6,5.6,0,0,0,1.64,1.84,7,7,0,0,0,2.31,1.06,10.54,10.54,0,0,0,2.71.34,10,10,0,0,0,2.11-.24,7.09,7.09,0,0,0,2-.75,4.57,4.57,0,0,0,1.51-1.36,3.64,3.64,0,0,0,.6-2.15q0-2.18-2.84-3.27a56.18,56.18,0,0,0-7.93-2.18c-1.38-.32-2.73-.69-4-1.12a13.62,13.62,0,0,1-3.51-1.7,8.16,8.16,0,0,1-2.47-2.66,7.59,7.59,0,0,1-.94-3.92,10.78,10.78,0,0,1,1.3-5.59,9.72,9.72,0,0,1,3.45-3.44A14.91,14.91,0,0,1,10.36,13a29.2,29.2,0,0,1,5.49-.51A26.45,26.45,0,0,1,21.3,13,14.36,14.36,0,0,1,26,14.87a11,11,0,0,1,3.45,3.44,11.79,11.79,0,0,1,1.64,5.42h-9A4.28,4.28,0,0,0,20,20a9.33,9.33,0,0,0-4.42-1c-.53,0-1.11,0-1.74.1a6,6,0,0,0-1.71.44,3.64,3.64,0,0,0-1.31,1,2.62,2.62,0,0,0-.53,1.74,2.65,2.65,0,0,0,.94,2.11,7.24,7.24,0,0,0,2.44,1.33,29.79,29.79,0,0,0,3.45.92c1.29.27,2.61.57,3.95.89a41.84,41.84,0,0,1,4.05,1.16,13.37,13.37,0,0,1,3.51,1.81,8.52,8.52,0,0,1,2.47,2.8,8.26,8.26,0,0,1,.94,4.12,11.46,11.46,0,0,1-1.37,5.83A11,11,0,0,1,27.1,47a14.42,14.42,0,0,1-5.05,2,28.65,28.65,0,0,1-5.79.58A28.1,28.1,0,0,1,10.37,49a15.52,15.52,0,0,1-5.12-2,11.57,11.57,0,0,1-3.68-3.78A12,12,0,0,1,0,37.25H9a5.14,5.14,0,0,0,.61,2.65" style="fill:#0f4380"></path><path d="M35.43,23.41A16.6,16.6,0,0,1,39,17.55a16.22,16.22,0,0,1,5.62-3.75A19.57,19.57,0,0,1,52,12.47a19.61,19.61,0,0,1,7.39,1.33,16.15,16.15,0,0,1,5.65,3.75,16.6,16.6,0,0,1,3.61,5.86,22,22,0,0,1,1.27,7.67,21.61,21.61,0,0,1-1.27,7.63,16.74,16.74,0,0,1-3.61,5.83,15.75,15.75,0,0,1-5.65,3.71A20.22,20.22,0,0,1,52,49.54a20,20,0,0,1-7.36-1.29A15.8,15.8,0,0,1,39,44.54a16.42,16.42,0,0,1-3.61-5.83,21.61,21.61,0,0,1-1.27-7.63,22.19,22.19,0,0,1,1.27-7.67M44.07,35.2a11,11,0,0,0,1.37,3.61A7.44,7.44,0,0,0,48,41.37a7.71,7.71,0,0,0,4,1,8,8,0,0,0,4-1,7.36,7.36,0,0,0,2.61-2.56,11.1,11.1,0,0,0,1.37-3.61,20.78,20.78,0,0,0,.4-4.12,21.41,21.41,0,0,0-.4-4.16,10.89,10.89,0,0,0-1.37-3.61A7.41,7.41,0,0,0,52,19.77a7.5,7.5,0,0,0-4,1,7.86,7.86,0,0,0-2.58,2.55,10.76,10.76,0,0,0-1.37,3.61,21.33,21.33,0,0,0-.4,4.16,20.06,20.06,0,0,0,.4,4.12" style="fill:#0f4380"></path><rect x="73.03" width="9.5" height="48.65" style="fill:#0f4380"></rect><path d="M87.28,0h9.5v8.8h-9.5Zm9.5,48.65h-9.5V13.43h9.5Z" style="fill:#0f4380"></path><path d="M126.16,44.16a9.9,9.9,0,0,1-4.38,4.12,14.37,14.37,0,0,1-6.12,1.26A14.56,14.56,0,0,1,108.84,48,13.75,13.75,0,0,1,104,43.85a19.13,19.13,0,0,1-2.88-6,25.61,25.61,0,0,1-1-7.09,24.08,24.08,0,0,1,1-6.85A17.77,17.77,0,0,1,104,18.05,14.34,14.34,0,0,1,108.77,14a14.05,14.05,0,0,1,6.69-1.53,13.32,13.32,0,0,1,5.85,1.33,10.26,10.26,0,0,1,4.38,3.92h.13V8.8l9.5-8.8V48.66h-9v-4.5Zm-.41-17.41a10.5,10.5,0,0,0-1.37-3.54,7.85,7.85,0,0,0-2.51-2.49,7.22,7.22,0,0,0-3.88-1,7.25,7.25,0,0,0-6.53,3.48,11.25,11.25,0,0,0-1.4,3.58,19.78,19.78,0,0,0-.43,4.19,17.83,17.83,0,0,0,.47,4.09,11.12,11.12,0,0,0,1.51,3.65,8.38,8.38,0,0,0,2.61,2.59,7,7,0,0,0,3.78,1,7.51,7.51,0,0,0,3.92-.95,7.24,7.24,0,0,0,2.51-2.56,11.74,11.74,0,0,0,1.34-3.65,21.65,21.65,0,0,0,.4-4.22,22,22,0,0,0-.42-4.2" style="fill:#0f4380"></path><path d="M160,21.38A6.68,6.68,0,0,0,158,19.05a8.23,8.23,0,0,0-2.79-1.35,13,13,0,0,0-3.35-.43,13.38,13.38,0,0,0-2.79.3,8.85,8.85,0,0,0-2.59,1,5.5,5.5,0,0,0-1.9,1.81,5,5,0,0,0-.72,2.76,3.85,3.85,0,0,0,.69,2.33,6.1,6.1,0,0,0,1.74,1.61,10.79,10.79,0,0,0,2.3,1.08c.83.28,1.6.52,2.3.69l5.51,1.25a16,16,0,0,1,3.51,1A11.27,11.27,0,0,1,163,32.84a8.92,8.92,0,0,1,2.2,2.76,8.27,8.27,0,0,1,.86,3.87,8.54,8.54,0,0,1-1.25,4.7,10.17,10.17,0,0,1-3.18,3.15,13.52,13.52,0,0,1-4.37,1.74,22.67,22.67,0,0,1-4.79.53,15.56,15.56,0,0,1-9.68-2.82c-2.47-1.88-3.89-4.9-4.23-9.06h4.14a8.17,8.17,0,0,0,3.05,6.34,11.09,11.09,0,0,0,6.93,2.13,15.48,15.48,0,0,0,3.12-.33,10.23,10.23,0,0,0,3-1.11,7.31,7.31,0,0,0,2.27-2,5,5,0,0,0,.89-3,4.72,4.72,0,0,0-.63-2.53,5.44,5.44,0,0,0-1.67-1.71,10.68,10.68,0,0,0-2.4-1.15c-.9-.31-1.81-.57-2.72-.79l-5.32-1.18a29.32,29.32,0,0,1-3.74-1.22,12,12,0,0,1-3-1.71,7.23,7.23,0,0,1-2-2.49,8.3,8.3,0,0,1-.72-3.65,8.11,8.11,0,0,1,1.15-4.4,9,9,0,0,1,3-3,13.92,13.92,0,0,1,4.1-1.64,19.88,19.88,0,0,1,4.5-.53,16.5,16.5,0,0,1,4.76.66,10.88,10.88,0,0,1,3.87,2,10.06,10.06,0,0,1,2.66,3.41,12.24,12.24,0,0,1,1.12,4.79H160.8a8.53,8.53,0,0,0-.83-3.31" style="fill:#0f4380"></path><path d="M190.17,19.44a9,9,0,0,0-6.43-2.17,10.49,10.49,0,0,0-5.19,1.25,11.48,11.48,0,0,0-3.71,3.28,14.73,14.73,0,0,0-2.23,4.63,19,19,0,0,0,0,10.58,15,15,0,0,0,2.23,4.63,11.26,11.26,0,0,0,3.71,3.28,10.49,10.49,0,0,0,5.19,1.25,9.2,9.2,0,0,0,3.61-.72,9.76,9.76,0,0,0,3-2,10.8,10.8,0,0,0,2.17-3.05,11.2,11.2,0,0,0,1.05-3.87h4.14a15.63,15.63,0,0,1-4.53,9.62,13.26,13.26,0,0,1-9.46,3.45,15.9,15.9,0,0,1-6.86-1.41,14.51,14.51,0,0,1-5-3.84,16.69,16.69,0,0,1-3.09-5.68,23.39,23.39,0,0,1,0-13.86,16.69,16.69,0,0,1,3.09-5.68,14.93,14.93,0,0,1,5-3.87,15.61,15.61,0,0,1,6.86-1.44A14.73,14.73,0,0,1,193,16.71q3.78,2.89,4.5,8.73h-4.14a11.47,11.47,0,0,0-3.16-6" style="fill:#0f4380"></path><path d="M228,44.83V24.69a11.88,11.88,0,0,0-1.12-5.55A8.88,8.88,0,0,0,224,15.82a10.85,10.85,0,0,0-4-1.61,24.15,24.15,0,0,0-4.46-.43,20.56,20.56,0,0,0-5.39.66,12.06,12.06,0,0,0-4.23,2A9.68,9.68,0,0,0,203,20a13.72,13.72,0,0,0-1.25,5.12h4.14c.09-2.76,1-4.76,2.63-6A10.43,10.43,0,0,1,215,17.26a18.94,18.94,0,0,1,3.45.3,7.82,7.82,0,0,1,2.82,1.08,5.52,5.52,0,0,1,1.9,2.13,7.56,7.56,0,0,1,.69,3.45,5.81,5.81,0,0,1-.36,2.23,3.19,3.19,0,0,1-1,1.35,4,4,0,0,1-1.64.69c-.66.13-1.42.24-2.3.33-2.23.26-4.43.54-6.6.82a23.62,23.62,0,0,0-5.85,1.48,9.94,9.94,0,0,0-4.17,3.05,8.77,8.77,0,0,0-1.58,5.55,10.27,10.27,0,0,0,.89,4.43,8.45,8.45,0,0,0,2.43,3.09A9.91,9.91,0,0,0,207.27,49a17.07,17.07,0,0,0,4.43.56,17.43,17.43,0,0,0,4.3-.46,11.81,11.81,0,0,0,3.22-1.31,11.47,11.47,0,0,0,2.56-2.13A27.93,27.93,0,0,0,224,42.75h.13c0,.88.05,4.4.16,5.12a6.19,6.19,0,0,0,.19.77h4.67v-.7A4.22,4.22,0,0,1,228,44.83m-4.14-9.3a10,10,0,0,1-3.51,7.82,11.05,11.05,0,0,1-3.78,2.1,14.23,14.23,0,0,1-4.53.72,8.77,8.77,0,0,1-2.82-.46,7.39,7.39,0,0,1-2.43-1.35,6.84,6.84,0,0,1-1.68-2.1,6,6,0,0,1-.62-2.79A4.92,4.92,0,0,1,206,35.63a9.88,9.88,0,0,1,3.78-2.07,29.77,29.77,0,0,1,5.09-1.08q2.79-.36,5.42-.82a15.45,15.45,0,0,0,2-.46,2.38,2.38,0,0,0,1.51-1.05h.13v5.38Z" style="fill:#0f4380"></path><path d="M236.85,14.78v6.43H237a11.06,11.06,0,0,1,4.7-5.48,14.18,14.18,0,0,1,7.39-1.94,14.77,14.77,0,0,1,6.73,1.44,13.73,13.73,0,0,1,4.76,3.91,16.59,16.59,0,0,1,2.82,5.71,26,26,0,0,1,0,13.72,16.51,16.51,0,0,1-2.82,5.71,13.51,13.51,0,0,1-4.76,3.87,16.09,16.09,0,0,1-10.41,1A12.78,12.78,0,0,1,242,47.72a11.19,11.19,0,0,1-2.79-2.3,9.8,9.8,0,0,1-1.87-3.22h-.13V61.11h-4.14V14.78ZM259.54,26.5a14.49,14.49,0,0,0-2-4.63,10.94,10.94,0,0,0-3.45-3.32,9.58,9.58,0,0,0-5.06-1.28,12.35,12.35,0,0,0-5.71,1.18,10,10,0,0,0-3.68,3.15,12.38,12.38,0,0,0-1.94,4.6,26.63,26.63,0,0,0-.56,5.52,22.57,22.57,0,0,0,.62,5.22,13.57,13.57,0,0,0,2,4.63,11,11,0,0,0,3.68,3.32,11.17,11.17,0,0,0,5.55,1.28,9.58,9.58,0,0,0,5.06-1.28,10.83,10.83,0,0,0,3.45-3.32,14.49,14.49,0,0,0,2-4.63,22,22,0,0,0,.62-5.22,22.57,22.57,0,0,0-.62-5.22" style="fill:#0f4380"></path><path d="M271.49,37.46a12.76,12.76,0,0,0,2,4.3A11.45,11.45,0,0,0,277,44.91,9.76,9.76,0,0,0,282,46.16a10,10,0,0,0,7.09-2.37,12.48,12.48,0,0,0,3.55-6.3h4.14A16.5,16.5,0,0,1,292,46.42q-3.51,3.15-10,3.15a15.81,15.81,0,0,1-6.93-1.41,12.68,12.68,0,0,1-4.76-3.87,16.6,16.6,0,0,1-2.72-5.71,26,26,0,0,1-.89-6.86,24.72,24.72,0,0,1,.89-6.57,17.74,17.74,0,0,1,2.72-5.75,13.58,13.58,0,0,1,4.76-4.07A14.64,14.64,0,0,1,282,13.79a13.41,13.41,0,0,1,11.66,5.94,17.77,17.77,0,0,1,2.59,6.11,26.92,26.92,0,0,1,.66,7H270.87a18.11,18.11,0,0,0,.62,4.63M292,24.82A12.4,12.4,0,0,0,289.85,21a10.59,10.59,0,0,0-3.35-2.69,9.56,9.56,0,0,0-4.47-1,9.69,9.69,0,0,0-4.53,1A10.73,10.73,0,0,0,274.15,21a13.58,13.58,0,0,0-2.2,3.87,18.69,18.69,0,0,0-1.08,4.5H292.8a15.31,15.31,0,0,0-.82-4.53" style="fill:#0f4380"></path><path d="M150.33,65.53h7.57c2,0,3,.82,3,2.54V69.8a1.94,1.94,0,0,1-1.36,1.94,1.93,1.93,0,0,1,1.53,1.94v2c0,1.73-1,2.54-3,2.54h-7.74Zm7.2,5.27c.57,0,.79-.18.79-.69V68.18c0-.49-.21-.67-.79-.67h-4.66V70.8Zm.17,5.47c.57,0,.79-.18.79-.67V73.36c0-.49-.21-.67-.79-.67h-4.83v3.58Z" style="fill:#7b757c"></path><path d="M167.61,73.85l-5-8.32h2.76l3.53,6.07,3.53-6.07h2.72l-5,8.32v4.4H167.6v-4.4Z" style="fill:#7b757c"></path><path d="M184.58,65.53h7.65c2,0,3,.84,3,2.54v3.14c0,1.71-1,2.54-3,2.54h-5.1v4.49h-2.55V65.53Zm7.29,6.23c.55,0,.79-.2.79-.67V68.2c0-.45-.23-.67-.79-.67h-4.74v4.23Z" style="fill:#7b757c"></path><path d="M209,78.25h-2.76l-2.74-4.74h-3v4.74h-2.55V65.53h7.63c2,0,3,.82,3,2.54V70.9a2.26,2.26,0,0,1-2.32,2.51Zm-3.8-6.69c.57,0,.79-.18.79-.69V68.18c0-.49-.21-.67-.79-.67h-4.72v4Z" style="fill:#7b757c"></path><path d="M211.33,75.7V68.07c0-1.73,1-2.54,3-2.54h5.21c2,0,3,.82,3,2.54V75.7c0,1.73-1,2.54-3,2.54h-5.21C212.28,78.25,211.33,77.43,211.33,75.7Zm7.82.55c.57,0,.79-.18.79-.67V68.2c0-.49-.21-.67-.79-.67h-4.46c-.59,0-.81.18-.81.67v7.38c0,.49.21.67.81.67Z" style="fill:#7b757c"></path><path d="M225.49,65.53h7.89c2,0,3,.82,3,2.54V75.7c0,1.73-1,2.54-3,2.54h-7.89ZM233,76.25c.57,0,.79-.18.79-.67V68.2c0-.49-.21-.67-.79-.67h-5v8.72Z" style="fill:#7b757c"></path><path d="M238.43,65.53h2.68l2.59,9.9,3-9.9h2.21l3,9.9,2.59-9.9h2.57l-3.83,12.72H250.6l-2.79-9.09L245,78.25h-2.78Z" style="fill:#7b757c"></path><path d="M266.37,75.14h-5.5l-1.13,3.11h-2.68l4.83-12.72h3.57l4.83,12.72h-2.78Zm-.72-2-2-5.65-2,5.65Z" style="fill:#7b757c"></path><path d="M274.58,73.85l-5-8.32h2.76l3.53,6.07,3.53-6.07h2.72l-5,8.32v4.4h-2.55v-4.4Z" style="fill:#7b757c"></path><path d="M283.83,75.7V74.21h2.51v1.4c0,.51.21.69.79.69h4c.57,0,.79-.18.79-.69V74.08c0-.58-.28-.76-1-.89l-4-.76c-1.79-.35-3.06-.89-3.06-2.62V68.07c0-1.73,1-2.54,3-2.54h4.44c2,0,3,.82,3,2.54v1.36h-2.49V68.16c0-.51-.21-.69-.81-.69h-3.74c-.59,0-.81.18-.81.69V69.5c0,.58.28.76,1,.91l4,.75c1.81.35,3.06.89,3.06,2.62v1.93c0,1.73-1,2.54-3,2.54h-4.72C284.78,78.25,283.83,77.43,283.83,75.7Z" style="fill:#7b757c"></path></g></g></svg> 